<svg xmlns="http://www.w3.org/2000/svg" viewBox="0 0 240 380" width="480" height="760" fill="none">
  <defs>
    <filter id="shadow" x="-50%" y="-20%" width="200%" height="150%">
      <feDropShadow dx="0" dy="3" stdDeviation="2.5" flood-opacity="0.35"/>
    </filter>
  </defs>

  <!-- TRACEJADO agora dark #002b36 -->
  <path d="M 44 111
           C 34 121 32 129 32 137
           C 32 163 58 176 86 176
           L 128 176
           C 165 176 192 195 192 233
           C 192 261 172 286 148 289
           L 144 289"
        stroke="#002b36"
        stroke-width="10"
        stroke-linecap="round"
        stroke-linejoin="round"
        stroke-dasharray="18 22"
        fill="none"/>

  <!-- PIN SUPERIOR em 119 - agora claro #fdf6e3 -->
  <g transform="translate(44, 119)">
    <g transform="scale(0.8)">
      <g transform="translate(0, -44)">
        <ellipse cx="0" cy="48" rx="28" ry="11" fill="#002b36" stroke="#fdf6e3" stroke-width="3.75" filter="url(#shadow)"/>
        <path d="M 0 -42 C -18 -42 -34 -26 -34 -6 C -34 14 0 44 0 44 C 0 44 34 14 34 -6 C 34 -26 18 -42 0 -42 Z" 
              fill="none" stroke="#fdf6e3" stroke-width="11.25" stroke-linecap="round" stroke-linejoin="round"/>
        <path d="M 0 -42 C -18 -42 -34 -26 -34 -6 C -34 14 0 44 0 44 C 0 44 34 14 34 -6 C 34 -26 18 -42 0 -42 Z" 
              fill="#fdf6e3" stroke="#002b36" stroke-width="6.25" stroke-linecap="round" stroke-linejoin="round"/>
        <circle cx="0" cy="-6" r="14" fill="none" stroke="#fdf6e3" stroke-width="11.25"/>
        <circle cx="0" cy="-6" r="14" fill="none" stroke="#002b36" stroke-width="6.25"/>
      </g>
    </g>
  </g>

  <!-- PIN INFERIOR -->
  <g transform="translate(144, 289)">
    <g transform="scale(0.8)">
      <g transform="translate(0, -44)">
        <ellipse cx="0" cy="48" rx="28" ry="11" fill="#002b36" stroke="#fdf6e3" stroke-width="3.75" filter="url(#shadow)"/>
        <path d="M 0 -42 C -18 -42 -34 -26 -34 -6 C -34 14 0 44 0 44 C 0 44 34 14 34 -6 C 34 -26 18 -42 0 -42 Z" 
              fill="none" stroke="#fdf6e3" stroke-width="11.25" stroke-linecap="round" stroke-linejoin="round"/>
        <path d="M 0 -42 C -18 -42 -34 -26 -34 -6 C -34 14 0 44 0 44 C 0 44 34 14 34 -6 C 34 -26 18 -42 0 -42 Z" 
              fill="#fdf6e3" stroke="#002b36" stroke-width="6.25" stroke-linecap="round" stroke-linejoin="round"/>
        <circle cx="0" cy="-6" r="14" fill="none" stroke="#fdf6e3" stroke-width="11.25"/>
        <circle cx="0" cy="-6" r="14" fill="none" stroke="#002b36" stroke-width="6.25"/>
      </g>
    </g>
  </g>
</svg>
